<svg width="599" height="474" viewBox="0 0 599 474" fill="none" xmlns="http://www.w3.org/2000/svg">
<g clip-path="url(#clip0_820_3522)">
<path d="M384.46 126.145C394.53 121.03 411.43 114.635 422.92 112.876C425.98 112.407 428.54 112.407 430.75 112.876C435.05 113.786 437.05 116.284 437.98 118.212C439.61 121.599 439.2 125.766 436.78 130.572C435.7 132.71 434.78 135.488 433.8 138.425C431.14 146.429 424.21 161.546 414.76 169.53C406.5 176.514 379.22 128.793 384.45 126.135L384.46 126.145Z" fill="#364347"/>
<path d="M321.26 152.933C320.94 152.873 320.63 152.794 320.32 152.684C319.68 152.444 303.17 153.393 301.12 138.595C299.01 123.388 302.07 111.817 304.7 103.804C305.67 100.856 306.58 98.0784 306.99 95.7204C307.81 91.0042 309.61 87.637 312.36 85.6986C314.43 84.2398 316.87 83.7102 319.44 84.1599C322.43 84.6794 325.45 86.5079 328.67 89.7353C336.86 97.9785 346.64 113.156 351.68 123.268C354.3 128.523 349.53 133.569 338.54 142.232C332.06 147.338 325.47 151.894 325.19 152.084C324.04 152.883 322.63 153.183 321.27 152.943L321.26 152.933Z" fill="#364347"/>
<path d="M455.64 465.147C421.96 463.808 377.42 460.301 350.81 458.193C339.2 457.274 330.82 456.614 328.14 456.514C325.55 456.415 321.79 455.355 318.55 450.879C308.81 437.44 309.7 399.871 315.06 381.106C320.92 360.553 320.76 318.128 312.35 292.219C303.92 266.271 316.52 238.124 316.27 216.032C316.07 198.156 312.76 182.339 312.73 182.18C312.41 180.651 312.81 179.052 313.82 177.853C314.83 176.654 316.34 175.995 317.9 176.055L396.29 179.162C397.57 179.212 398.79 179.742 399.69 180.651C405.93 186.916 410.82 195.039 415.55 202.893C420.18 210.576 424.54 217.82 429.77 222.866C433.69 226.643 440.11 231.309 447.55 236.705C460.56 246.157 470.74 257.398 482 271.266C505.78 300.532 508.88 340.13 513.27 346.475C525.65 364.41 531.63 404.987 523.64 422.632C521.31 427.788 519.53 432.794 517.81 437.64C514.3 447.542 511.26 456.095 504.84 462.02C502.62 464.068 499.58 466.876 455.66 465.137L455.64 465.147Z" fill="#364347"/>
<path d="M518.99 420.544C511.92 436.161 509.73 450.569 501.36 458.293C498.85 460.611 483.55 460.971 462.98 460.331C459.72 460.221 456.31 460.111 452.83 459.952C445.2 459.632 437.09 459.192 428.8 458.713C384.83 456.105 335.87 451.738 328.32 451.439C323.64 451.259 320.45 445.783 318.5 437.75C315.28 424.361 315.57 403.918 318.37 389.16C318.82 386.762 319.34 384.523 319.92 382.485C321.01 378.638 321.92 374.162 322.59 369.226C323.09 365.539 323.48 361.612 323.75 357.526C323.9 355.347 324.01 353.129 324.08 350.871C324.23 346.714 324.25 342.468 324.13 338.172C324.04 334.105 323.83 330.028 323.51 325.962C322.82 317.019 321.58 308.246 319.76 300.333C319.01 296.925 318.13 293.678 317.13 290.64C316.93 290.031 316.76 289.422 316.59 288.802C314.9 282.937 314.23 276.952 314.2 270.977C314.1 258.027 317 245.178 319.13 233.927C320.39 227.272 321.37 221.187 321.32 215.972C321.11 197.387 317.67 181.12 317.67 181.12L396.07 184.228C400.82 189.004 404.81 195.069 408.63 201.344C410.53 204.441 412.39 207.589 414.28 210.646C417.97 216.611 421.78 222.247 426.22 226.533C430.86 231.009 437.59 236.265 445.06 242.41C455.83 251.223 468.17 261.874 478.1 274.574C484.66 282.967 489.24 290.95 492.61 298.454C501.9 319.197 501.88 336.353 508.23 348.673C508.88 349.942 509.6 351.171 510.4 352.33C512.68 355.617 514.66 359.684 516.33 364.19C523.06 382.425 524.64 408.044 518.98 420.564L518.99 420.544Z" fill="white"/>
<g style="mix-blend-mode:multiply">
<path d="M411.7 206.38C409.73 224.095 397.49 231.249 384.69 236.765C369.81 243.169 353.74 242.79 338.79 248.665C330.06 252.082 325.09 257.078 320.51 265.411C316.47 272.745 317.46 280.849 316.62 288.812C309.14 262.733 321.54 234.127 321.34 215.972C321.12 197.387 317.69 181.12 317.69 181.12L396.08 184.228C400.83 189.004 404.83 195.079 408.65 201.334C408.56 205.57 411.98 203.992 411.71 206.38H411.7Z" fill="#E0DBD2"/>
</g>
<path d="M467.78 444.994C478.36 443.595 485.85 446.832 493 436.611C497.29 430.486 500.83 415.288 497.09 408.074C492.38 398.992 478.96 395.185 469.73 395.445C448.7 396.034 446.34 410.782 433.79 423.082C422.35 434.293 404.65 434.632 404.26 442.466C402.55 476.378 454.75 446.712 467.78 444.984V444.994Z" fill="#FBA600"/>
<path d="M331.48 378.888C325.24 381.436 322.02 385.103 318.39 389.16C318.84 386.762 319.36 384.523 319.94 382.495C323.1 371.404 324.56 355.068 324.16 338.191C327.29 346.025 331.93 352.46 339.93 354.548C344.32 355.697 350.17 353.379 353.84 357.056C368.2 371.444 337.67 376.37 331.48 378.888Z" fill="#FBA600"/>
<path d="M516.34 364.18C515.39 364.68 514.4 365.129 513.34 365.549C503.38 369.526 492.13 366.688 481.55 367.857C464.61 369.726 454.34 372.194 442.93 382.785C429.22 395.485 404.17 414.169 384.51 417.257C364.93 420.334 397.71 380.337 398.32 367.877C398.96 354.838 367.55 356.896 364.38 347.524C356.7 324.833 397.06 310.694 389.61 287.653C382.5 265.641 391.22 267.03 401.3 247.976C406.04 239.003 412.52 224.625 411.7 214.353C412.47 212.894 413.33 211.675 414.31 210.646C418 216.611 421.81 222.247 426.25 226.523C430.89 231 437.62 236.255 445.09 242.4C455.86 251.223 468.2 261.854 478.13 274.574C484.69 282.957 489.28 290.94 492.64 298.454C502.89 321.325 501.81 339.85 510.43 352.32C512.7 355.607 514.69 359.674 516.35 364.19L516.34 364.18Z" fill="#FBA600"/>
<path d="M309.45 219.379C301.84 212.984 295.79 205.38 292.31 198.376C285.2 184.078 282.52 161.267 298.39 143.991C302.28 139.764 305.28 135.348 308.19 131.081C314.48 121.859 320.41 113.136 332.22 112.896C334.34 112.856 336.61 113.106 338.97 113.646C344.36 114.885 348.84 116.943 352.79 118.761C356.63 120.53 359.94 122.059 363.46 122.618C364.25 122.748 365.45 122.858 366.85 122.978C378.69 124.037 406.41 126.535 412.63 160.607C417.78 188.804 415.95 208.857 401.16 220.518C382.81 234.996 358.82 224.195 358.82 224.195C332.24 234.466 317.09 225.764 309.47 219.359L309.45 219.379Z" fill="#364347"/>
<path d="M408.19 196.877C408.04 197.527 407.88 198.156 407.73 198.776C405.76 206.21 402.25 212.025 397.43 216.741C386.51 227.432 354.93 231.809 337.13 227.922C319.35 224.025 303.25 208.488 297.05 196.018C295.7 193.31 294.52 190.213 293.63 186.856C293.1 184.837 292.69 182.729 292.42 180.571C291.02 169.8 293.09 157.56 302.28 147.568C316.39 132.211 319.61 114.645 337.78 118.812C342.65 119.921 346.7 121.789 350.56 123.568C354.58 125.416 358.37 127.165 362.59 127.844C363.72 128.024 365.24 128.144 367.07 128.314C378.66 129.373 402.01 132.081 407.39 161.566C410.07 176.264 410.23 187.745 408.19 196.877Z" fill="white"/>
<g style="mix-blend-mode:multiply">
<path d="M407.73 198.776C405.76 206.21 402.25 212.025 397.43 216.741C386.51 227.432 354.93 231.809 337.13 227.922C319.35 224.025 303.25 208.488 297.05 196.018C295.7 193.31 294.52 190.213 293.63 186.856C293.1 184.837 292.69 182.729 292.42 180.571C295.66 184.238 300.17 186.796 305.54 188.414C310.12 189.803 330.89 190.053 332.05 185.057C332.36 183.738 334.67 190.692 339.2 190.772C347.67 190.922 349.93 185.057 346.79 183.748C340.98 181.32 342.92 176.034 344.14 175.655C350.89 173.537 356.19 176.394 359.02 179.462C359.44 179.921 361.26 182.869 358.8 184.967C357.12 186.386 351.05 185.097 350.49 186.706C349.59 189.324 354.12 195.199 354.54 195.508C357.19 197.457 360.25 194.939 363.2 192.311C362.59 192.841 362.18 198.456 363.05 199.865C367.59 207.229 373.94 206.759 376.8 207.419C390 210.476 398.27 203.932 407.73 198.786V198.776Z" fill="#E0DBD2"/>
</g>
<path d="M408.19 196.877C404.25 194.539 401.87 190.323 397.65 187.905C391.88 184.597 384.54 185.077 378.06 184.358C364.82 182.909 365.44 175.835 361.43 162.785C358.52 153.353 358.33 126.545 362.55 127.234C363.68 127.414 365.2 127.734 367.04 127.704C383.99 127.394 402.92 133.15 408.3 162.635C410.98 177.333 410.23 187.755 408.19 196.877Z" fill="#364347"/>
<path d="M346.93 125.626C341.95 115.644 332.41 101.016 324.9 93.4622C317.39 85.9084 313.41 89.6353 312.2 96.6196C310.59 105.952 304.94 114.555 305.35 129.932C305.81 147.328 316.82 148.397 322.17 147.728C326.17 147.228 325.56 137.316 332.55 135.917C346.4 133.14 347.89 127.544 346.93 125.636V125.626Z" fill="white"/>
<path d="M323.49 110.178C326.67 111.138 329.5 114.525 332.72 113.815C335.34 113.236 335.29 111.328 335.65 107.93C335.68 107.611 335.69 107.291 335.72 106.981C332.1 101.755 328.29 96.8894 324.9 93.4622C317.39 85.9084 313.41 89.6353 312.2 96.6196C311.53 100.496 309.88 104.783 308.42 109.539C313.19 108.52 318.26 108.62 323.49 110.188V110.178Z" fill="#FBA600"/>
<path d="M334.66 127.245C334.99 125.706 325.47 109.819 319.96 103.214C314.45 96.6097 312.93 105.193 311.46 111.148C309.99 117.103 308.69 134.519 311.73 138.096C311.73 138.096 317.66 132.72 322.07 131.351C332.29 128.164 333.99 130.292 334.65 127.235L334.66 127.245Z" fill="#E37378"/>
<path d="M319.96 103.214C317.88 100.726 316.38 100.397 315.22 101.266C320 109.959 324.81 124.217 324.53 125.486C323.98 128.004 317.29 129.782 310.94 136.617C311.16 137.236 311.42 137.746 311.73 138.106C311.73 138.106 317.66 132.73 322.07 131.361C332.29 128.174 333.99 130.302 334.65 127.244C334.98 125.706 325.46 109.819 319.95 103.214H319.96Z" fill="#A85559"/>
<path d="M350.9 188.724C350.73 188.144 352.3 181.939 352.15 181.31C351.81 181.25 350.51 180.93 350.21 180.82C349.76 181.21 347.5 187.155 347.06 187.505C336.68 195.828 332.36 183.738 332.36 183.738C332.36 183.738 331.36 192.291 338.74 193.83C341.1 194.319 347.13 193.44 347.13 193.44C347.13 193.44 350.03 196.607 352.48 197.447C361.04 200.364 363.2 192.321 363.2 192.321C363.2 192.321 354.4 200.394 350.89 188.734L350.9 188.724Z" fill="#364347"/>
<path d="M359.95 181.47C360.33 177.323 355.63 174.236 353.4 173.526C351.17 172.817 345.55 172.627 343.46 176.234C342.73 177.493 343.96 179.891 346.13 180.99C348.3 182.089 347.61 184.907 348.16 185.956C348.71 187.005 349.06 187.165 349.06 187.165C349.06 187.165 349.45 187.235 350.5 186.696C351.55 186.156 352.61 183.458 355.02 183.808C357.43 184.158 359.82 182.919 359.95 181.46V181.47Z" fill="#364347"/>
<g style="mix-blend-mode:multiply">
<path d="M343.11 157.06C345.26 161.207 342.73 166.582 332.54 167.651C325.31 168.411 319.51 162.056 319.26 158.519C319.01 154.982 319.94 149.726 324.7 148.867C329.46 148.007 341.04 153.093 343.11 157.07V157.06Z" fill="#E0DBD2"/>
</g>
<path d="M342.94 159.438C341.65 163.495 333.5 164.704 328.39 163.085C323.28 161.466 320.5 155.861 321.79 151.804C323.08 147.748 328.39 145.399 333.5 147.018C338.61 148.637 344.23 155.381 342.94 159.438Z" fill="#293336"/>
<path d="M338.66 158.649C337.51 162.276 333.19 163.375 328.75 161.966C324.31 160.557 321.42 157.17 322.57 153.543C323.72 149.916 328.36 147.778 332.81 149.186C337.25 150.595 339.81 155.022 338.66 158.639V158.649Z" fill="#FDB300"/>
<path d="M331.1 150.595C327.86 151.035 327.2 154.462 327.37 157.08C327.54 159.698 329.64 162.166 331.71 160.567C333.43 159.238 333.94 156.221 334.16 154.422C334.44 152.094 333.31 150.295 331.1 150.595Z" fill="#293336"/>
<path d="M328.88 153.723C328.48 154.972 327.64 155.831 327 155.621C326.36 155.411 326.16 154.232 326.56 152.983C326.96 151.734 327.8 150.875 328.44 151.085C329.08 151.295 329.28 152.474 328.88 153.723Z" fill="white"/>
<g style="mix-blend-mode:multiply">
<path d="M367.1 166.082C365.41 171.768 371.11 177.803 377.58 178.043C384.05 178.282 388.58 177.053 389.31 171.538C390.05 166.023 389.58 164.864 382.81 162.416C376.04 159.968 368.36 161.856 367.1 166.092V166.082Z" fill="#CCC7BF"/>
</g>
<path d="M367.23 162.546C365.94 166.602 371.9 172.297 377.01 173.916C382.12 175.535 387.63 172.567 388.91 168.511C390.19 164.454 387.22 159.468 382.11 157.849C377 156.231 368.52 158.489 367.23 162.546Z" fill="#293336"/>
<path d="M371.19 164.364C370.04 167.991 372.92 171.378 377.37 172.787C381.81 174.196 386.12 173.097 387.28 169.47C388.43 165.843 385.87 161.427 381.43 160.018C376.99 158.609 372.35 160.747 371.19 164.374V164.364Z" fill="#FDB300"/>
<path d="M382.81 162.405C385.2 164.634 383.76 167.811 382.11 169.849C380.46 171.878 377.32 172.697 376.55 170.199C375.91 168.121 377.23 165.363 378.1 163.774C379.22 161.716 381.18 160.897 382.81 162.415V162.405Z" fill="#293336"/>
<path d="M375.94 164.054C375.54 165.303 375.74 166.492 376.38 166.692C377.02 166.892 377.86 166.043 378.26 164.794C378.66 163.545 378.46 162.356 377.82 162.156C377.18 161.956 376.34 162.805 375.94 164.054Z" fill="white"/>
<path d="M306.04 359.954C289.51 353.709 278.5 328.09 277.78 316.11C277.15 305.578 271.06 291.27 267.42 282.717C262.99 272.296 265.72 260.545 268.13 250.184L268.3 249.464C269.95 242.37 273.82 238.753 277.82 237.424C278.8 230.8 280.7 222.267 284.25 218.999C286.32 217.091 288.92 216.092 291.55 216.202C294.22 216.311 296.73 217.56 298.42 219.649C300.35 222.017 301.09 225.224 300.5 228.661C300.08 231.159 299.3 234.616 298.53 237.834C298.9 237.814 299.26 237.814 299.62 237.834C307.07 238.134 312.27 244.458 312.85 253.961C313.17 259.116 311.89 263.433 309.27 266.111C307.85 267.559 306.1 268.429 304.26 268.609C306.74 276.592 316.34 289.461 322.22 295.526C328.12 301.601 334.3 312.722 326.29 322.584L315.63 336.843C315.73 337.712 326.18 354.568 323.79 357.526C318.84 363.661 308.03 360.693 306.05 359.954H306.04Z" fill="#364347"/>
<path d="M333.05 341.289C333.05 341.289 329.48 346.624 324.11 350.881C319.35 354.678 313.17 357.605 306.81 355.217C296.53 351.321 288.41 337.142 284.82 325.562C283.69 321.925 282.99 318.547 282.84 315.81C282.15 304.369 275.87 289.661 272.04 280.639C270.3 276.562 269.9 272.046 270.23 267.409C270.45 263.802 271.12 260.125 271.89 256.508C272.32 254.52 272.79 252.552 273.24 250.613C275.54 240.721 282.34 241.93 282.34 241.93C282.34 241.93 284.11 226.013 287.67 222.726C289.5 221.037 291.76 220.878 293.4 221.907C294.97 222.876 295.96 224.934 295.48 227.812C294.52 233.537 291.53 244.818 291.37 245.447C291.43 245.377 291.64 245.158 292.05 244.868C292.06 244.868 292.06 244.858 292.06 244.858C292.96 244.238 294.83 243.299 298.19 242.949C301.82 242.57 304.78 244.518 306.42 248.245C307.16 249.914 307.63 251.942 307.77 254.28C308.23 261.814 304.28 265.261 301.71 262.763C299.14 260.255 302.08 253.381 299.75 254.44C297.42 255.509 296.5 259.636 299.15 269.348C301.82 279.07 313.06 293.408 318.55 299.053C318.92 299.433 319.34 299.863 319.78 300.332C322.25 302.87 325.61 306.537 328.46 311.453C329.83 313.831 331.08 316.499 332.05 319.477C333.98 325.452 334.75 332.686 333.04 341.279L333.05 341.289Z" fill="white"/>
<path d="M438.03 353.689C437.51 353.579 436.97 353.489 436.39 353.429C425.68 352.3 416.96 360.863 408.35 365.749C398.79 371.174 388.63 375.301 377.53 375.95C364.72 376.69 347.42 384.703 353.31 399.521C355.12 404.087 357.3 405.266 358.25 410.532C358.91 414.179 358.11 417.946 358.64 421.513C360.38 433.123 371.26 436.77 382.77 432.764C396.38 428.028 400.08 414.898 407.28 404.297C416.41 390.848 434.82 386.782 443.2 373.392C447.94 365.809 447.45 355.707 438.02 353.689H438.03Z" fill="#364347"/>
<g style="mix-blend-mode:multiply">
<path d="M462.99 460.331C414.89 458.822 337.95 451.818 328.33 451.438C315.86 450.949 313.9 412.78 318.38 389.16C318.83 386.762 319.35 384.523 319.93 382.495C321.85 375.761 323.15 367.088 323.77 357.535C324.64 356.017 324.73 346.115 325.58 344.386C331.09 333.285 327.54 334.854 333.98 323.933C339.9 313.891 349.33 290.71 346.97 280.988C352.53 286.394 353.92 299.123 352.83 305.558C351.25 314.841 351.17 323.563 352.48 332.936C355.45 354.438 402.19 340.09 407.72 361.222C413.22 382.225 398.99 419.265 418 424.041C429 426.799 429.41 432.484 439.57 426.719C449.63 421.013 455.96 413.969 469.07 415.718C472.31 427.708 469.21 444.874 462.98 460.331H462.99Z" fill="#E0DBD2"/>
</g>
<path d="M288.57 473.94C278.96 473.56 272.69 471.362 268.84 467.026C265.92 463.738 264.65 459.442 265.07 454.246C265.79 445.383 274.63 430.805 325.78 432.834C334.18 433.163 342.57 433.973 350.02 435.172C353.3 435.701 356.75 436.281 360.33 436.88C376.03 439.518 393.82 442.516 410.3 443.165C423.55 443.685 433.75 442.316 441.79 439.938C451.43 437.09 457.56 431.145 459.13 424.82C460.32 419.994 463.93 413.3 470.75 413.609C472.38 413.689 474.6 415.548 476.1 415.598C482.4 415.848 484.19 422.372 485.08 430.636C486.49 443.755 478.28 458.832 449.28 466.336C422.08 473.37 370.03 471.872 342.06 471.072L339.12 470.992C331.77 470.783 322.94 471.642 314.4 472.481C305.49 473.35 296.28 474.25 288.56 473.94H288.57Z" fill="#364347"/>
<path d="M480.29 428.817C479.95 431.435 479.22 434.213 478.07 437.01C476.48 440.977 474.02 444.974 470.58 448.631C466.29 453.207 460.46 457.244 452.83 459.952C451.31 460.511 449.7 461.011 448.02 461.44C443.6 462.589 438.51 463.499 432.94 464.218C415.13 466.536 392.58 466.896 372.46 466.676C359.86 466.546 348.2 466.186 339.28 465.937C311.65 465.147 268.22 478.446 270.15 454.676C270.78 446.862 279.63 442.276 291.8 439.898C295.02 439.249 298.45 438.779 302.04 438.439C307.32 437.94 312.92 437.73 318.53 437.77C329.43 437.82 340.39 438.779 349.24 440.208C377.37 444.714 418.37 453.297 443.45 444.764C451.59 441.996 456.28 438.539 459.16 434.922C466.11 426.219 462.47 416.597 470.78 413.63C477.55 411.202 481.64 418.845 480.31 428.827L480.29 428.817Z" fill="white"/>
<path d="M323.26 363.67C324.44 355.997 327.21 343.107 331.17 334.295C339.67 315.38 353.47 291.889 346.98 280.988C346.98 280.988 345.28 292.639 336.77 310.414C333.32 317.618 332.06 319.497 326.66 333.135C321.35 346.554 319.59 357.535 319.27 366.218C320.59 365.519 321.8 363.8 323.27 363.68L323.26 363.67Z" fill="#364347"/>
<path d="M492.63 298.444C475.58 304.369 462.23 307.866 444.22 309.775C437.86 310.444 419.21 320.836 413.86 315.3C404.94 306.068 410.53 289.841 429.93 279.589C440.07 274.224 434.34 249.444 445.08 242.4C455.85 251.223 468.19 261.854 478.12 274.574C484.68 282.957 489.27 290.94 492.63 298.454V298.444Z" fill="#364347"/>
<path d="M372.46 466.666C359.86 466.536 348.2 466.176 339.28 465.927C311.65 465.137 268.22 478.436 270.15 454.666C270.95 444.794 284.89 440.058 302.04 438.429C304.11 450.11 300.36 455.465 319.44 453.507C331.88 452.218 344.45 445.923 356.69 451.139C363.68 454.106 369.28 459.902 372.47 466.676L372.46 466.666Z" fill="#FBA600"/>
<path d="M470.59 448.621C465.44 454.116 458.08 458.832 448.03 461.43C443.61 462.579 438.52 463.489 432.95 464.208C438.08 456.634 444.29 449.66 452.81 447.142C457.62 445.723 464.87 446.143 470.6 448.621H470.59Z" fill="#364347"/>
<path d="M480.29 428.817C477.5 430.006 474.86 429.736 471.65 430.256C467.63 430.925 465.04 432.854 461.46 434.243C460.63 434.562 459.86 434.792 459.13 434.912C466.08 426.209 462.44 416.587 470.75 413.62C477.52 411.192 481.61 418.835 480.28 428.817H480.29Z" fill="#FBA600"/>
<path d="M365.95 184.687C375.01 184.098 384.09 185.537 392.8 187.975C394.06 188.304 395.29 188.704 396.55 189.074C387.13 184.707 376.23 182.619 365.95 184.687Z" fill="#364347"/>
<path d="M364.99 187.705C373.75 189.483 382.13 192.901 389.56 197.866C390.49 198.486 391.8 199.425 392.7 200.085C385.38 192.851 375.26 188.354 364.99 187.705Z" fill="#364347"/>
<path d="M362.87 190.822C370.81 194.279 377.99 199.625 382.96 206.759C383.59 207.648 384.42 208.977 384.98 209.897C384.74 209.317 384.49 208.748 384.23 208.168C380.09 199.665 371.94 193.28 362.86 190.822H362.87Z" fill="#364347"/>
<path d="M329.23 175.355C323.08 166.872 313.65 161.027 303.76 157.859C304.93 158.439 306.11 158.988 307.26 159.588C315.32 163.695 322.97 168.79 329.23 175.355Z" fill="#364347"/>
<path d="M327.9 178.223C319.91 171.738 309.42 168.191 299.13 168.551C300.22 168.68 301.84 168.87 302.94 169.05C311.77 170.429 320.25 173.596 327.89 178.223H327.9Z" fill="#364347"/>
<path d="M327.34 181.95C318.99 177.613 308.67 176.794 299.86 180.231C299.28 180.471 298.71 180.731 298.14 180.99C299.18 180.691 300.69 180.281 301.76 180.051C310.25 178.183 319.16 179.112 327.34 181.94V181.95Z" fill="#364347"/>
<path d="M284.82 325.562C283.69 321.925 283 318.548 282.84 315.81C282.15 304.369 275.88 289.651 272.05 280.639C268.96 273.375 270.13 264.762 271.9 256.518C273.81 253.661 281.05 262.284 281.85 269.997C282.7 278.321 292.85 284.346 294.71 292.419C297.61 304.979 290.39 315.39 284.81 325.572L284.82 325.562Z" fill="#FBA600"/>
<path d="M328.37 207.029C321.31 209.337 331.01 212.864 338.49 216.022C345.97 219.189 358.41 216.861 353.6 212.565C348.79 208.268 336.61 204.341 328.37 207.029Z" fill="white"/>
<path d="M386.86 130.862C396.81 125.806 413.19 119.721 423.72 118.112C434.25 116.503 435.24 121.869 432.05 128.204C427.79 136.667 426.72 150.406 414.97 160.337C406.88 167.172 393.61 163.345 393.61 163.345C393.61 163.345 383.16 132.75 386.87 130.862H386.86Z" fill="#364347"/>
<path d="M421.88 128.883C415.47 130.442 408.11 132.82 401.22 136.807C404.92 142.652 407.4 149.506 409.09 155.631C409.53 157.23 409.95 158.849 410.34 160.487C415 157.59 421.83 145.48 423.99 140.314C426.36 134.648 430.25 126.845 421.89 128.883H421.88Z" fill="#E37378"/>
<path d="M406.66 145.04C408.83 137.586 418.1 132.41 426.13 129.083C425.37 128.503 424.04 128.364 421.88 128.893C415.47 130.452 408.11 132.83 401.22 136.817C404.92 142.662 405.78 148.077 406.66 145.05V145.04Z" fill="#A85559"/>
<g style="mix-blend-mode:multiply">
<path d="M346.07 298.594C345.63 298.674 345.2 298.894 344.85 299.303C339.97 305.139 337.25 313.811 332.33 319.827C331.76 320.536 331.14 321.215 330.5 321.845C328.77 323.514 326.45 325.052 323.83 326.301C317.94 329.119 310.57 330.548 305.24 328.959C291.27 324.772 286.03 298.634 278.78 287.783C274.4 281.218 271.9 274.174 270.51 267.749C270.19 272.385 270.58 276.892 272.32 280.978C276.16 289.991 282.42 304.709 283.11 316.15C283.27 318.887 283.96 322.265 285.09 325.902C288.68 337.482 296.8 351.66 307.08 355.547C312.8 357.705 318.37 355.547 322.9 352.32C327.95 333.425 335.28 315.25 346.05 298.594H346.07Z" fill="#E0DBD2"/>
</g>
<g style="mix-blend-mode:multiply">
<path d="M519 420.544C511.92 436.161 509.74 450.579 501.37 458.303C498.86 460.621 483.56 460.971 462.99 460.341C459.73 460.241 456.33 460.111 452.84 459.952C451.32 460.511 449.71 461.011 448.03 461.44C443.61 462.589 438.52 463.499 432.95 464.218C415.14 466.536 392.59 466.896 372.47 466.676C359.87 466.546 348.21 466.186 339.29 465.937C311.66 465.147 268.23 478.446 270.16 454.676C270.79 446.862 279.64 442.276 291.81 439.898C290.33 445.923 292.52 452.358 300.13 455.415C308.2 458.653 316.76 456.794 324.97 456.285C334.32 455.705 344.18 457.494 353.39 458.733C370.86 461.091 386.81 459.562 404.22 459.342C412.04 459.242 420.51 459.242 428.83 458.733C435.53 458.323 442.14 457.613 448.26 456.255C459.48 453.777 470.58 446.003 478.09 437.03C478.66 436.371 479.21 435.681 479.73 435.002C486.18 426.579 493.82 430.396 502.53 422.662C513.7 412.73 514.12 393.166 513.81 378.898C513.62 370.525 508.16 358.225 508.26 348.683C508.91 349.952 509.62 351.171 510.43 352.34C512.7 355.627 514.69 359.694 516.35 364.21C523.09 382.435 524.66 408.064 519.01 420.574L519 420.544Z" fill="#E0DBD2"/>
</g>
<path d="M505.37 341.619C506.24 346.425 508.15 351.481 509.75 361.123C511.35 370.765 512.46 402.399 512.46 402.399C512.46 402.399 516.34 374.122 512.31 348.653C511.23 341.858 505.38 341.619 505.38 341.619H505.37Z" fill="#364347"/>
<path d="M292.05 244.868C291.84 245.068 291.6 245.268 291.37 245.447C291.43 245.378 291.64 245.158 292.05 244.868Z" fill="#E0DBD2"/>
<path d="M291.37 245.447C290.37 246.237 289.25 246.806 288.31 246.327C286.9 245.607 287.85 244.029 288.37 242.94C289.63 240.372 291.22 237.854 291.95 235.066C293.06 230.789 293.33 226.343 293.39 221.917C294.96 222.886 295.95 224.944 295.47 227.822C294.51 233.547 291.52 244.828 291.36 245.457L291.37 245.447Z" fill="#E0DBD2"/>
<path d="M328.46 311.463C326.21 309.805 322.09 306.238 315.15 300.163C308.03 293.938 302.95 284.765 301.25 282.577C299.66 280.529 297.72 278.87 296.06 276.902C292.16 272.255 289.66 264.632 290.93 258.637C291.41 256.358 292.79 253.161 294.67 251.762C297.77 249.454 301.76 249.554 305.31 248.675C305.76 248.565 306.12 248.415 306.42 248.245C307.16 249.914 307.63 251.942 307.77 254.28C308.23 261.814 304.28 265.261 301.71 262.763C299.14 260.255 302.08 253.381 299.75 254.44C297.42 255.509 296.5 259.636 299.15 269.348C301.82 279.07 313.06 293.408 318.55 299.053C318.92 299.433 319.34 299.863 319.78 300.332C322.25 302.87 325.61 306.537 328.46 311.453V311.463Z" fill="#E0DBD2"/>
</g>
<defs>
<clipPath id="clip0_820_3522">
<rect width="262.25" height="390" fill="white" transform="matrix(-1 0 0 1 527.25 84)"/>
</clipPath>
</defs>
</svg>
