<svg width="33" height="33" viewBox="0 0 33 33" fill="none" xmlns="http://www.w3.org/2000/svg">
<circle cx="16.5" cy="16.5" r="16.5" fill="#FF1616"/>
<path d="M11.2882 16.2685C11.7652 16.0617 12.0042 15.524 11.838 15.0314C11.5286 14.1139 11.3311 13.444 11.2329 13.0029C11.2253 12.9685 11.2185 12.9367 11.2124 12.9071C11.7622 12.5306 12.7138 11.947 14.1062 11.1431L14.3775 10.9864L13.8219 25.8997C13.8149 26.0878 13.8611 26.274 13.9552 26.437L14.2542 26.9549C14.5304 27.4332 15.1419 27.5971 15.6202 27.3209L25.5698 21.5765C26.007 21.3241 26.1875 20.7854 25.9906 20.3205C25.4654 19.0804 24.9885 18.0809 24.5604 17.3393C24.1567 16.6402 23.8677 16.1539 23.7063 15.9076C23.4352 15.4942 22.9027 15.3409 22.4533 15.5469L21.3374 16.0584C20.8912 16.2629 20.6594 16.761 20.7902 17.234C21.1027 18.3637 21.3088 19.2078 21.4165 19.7809C21.4458 19.9365 21.466 20.0629 21.4792 20.1633C21.3797 20.2353 21.2555 20.3205 21.1041 20.4196C20.7226 20.6691 20.1987 20.987 19.5262 21.3753L18.2294 22.124L18.8019 7.2286C18.8092 7.04016 18.763 6.85351 18.6687 6.69019L18.3697 6.17226C18.0935 5.69396 17.4819 5.53009 17.0037 5.80623L7.20806 11.4617C6.78814 11.7042 6.60265 12.2129 6.768 12.6687C7.04517 13.4328 7.36381 14.1315 7.72694 14.7604C8.05664 15.3315 8.39947 15.895 8.75541 16.4508C9.01998 16.864 9.5452 17.0242 9.99532 16.829L11.2882 16.2685ZM11.1671 12.6021C11.1672 12.6022 11.1672 12.6038 11.1671 12.6071C11.1671 12.6037 11.1671 12.6021 11.1671 12.6021Z" stroke="white" stroke-width="2" stroke-linejoin="round"/>
</svg>
