<svg width="69" height="69" viewBox="0 0 69 69" fill="none" xmlns="http://www.w3.org/2000/svg">
<circle cx="34" cy="35" r="20" fill="#FF1616"/>
<path d="M27.5985 34.5247C28.0754 34.3179 28.3144 33.7802 28.1483 33.2876C27.7725 32.1736 27.5303 31.3531 27.4087 30.8071C27.3863 30.7063 27.3694 30.6208 27.3567 30.5491C28.0141 30.0886 29.2106 29.3518 30.9925 28.323L31.6537 27.9413L30.9659 46.4015C30.9589 46.5895 31.0051 46.7757 31.0992 46.9387L31.4617 47.5665C31.7378 48.0448 32.3494 48.2087 32.8277 47.9325L44.8878 40.9696C45.325 40.7172 45.5055 40.1785 45.3086 39.7136C44.6734 38.214 44.0993 37.0114 43.5866 36.1233C43.0967 35.2749 42.7495 34.6908 42.5576 34.3982C42.2865 33.9848 41.7541 33.8315 41.3047 34.0375L39.952 34.6575C39.5058 34.862 39.274 35.3601 39.4048 35.8331C39.784 37.2041 40.0358 38.2341 40.168 38.9377C40.2166 39.196 40.2457 39.3934 40.2606 39.5377C40.134 39.6331 39.9509 39.7624 39.6969 39.9285C39.2299 40.234 38.591 40.6215 37.7743 41.0931L35.8696 42.1927L36.5784 23.7538C36.5856 23.5653 36.5395 23.3787 36.4452 23.2153L36.0827 22.5875C35.8066 22.1093 35.195 21.9454 34.7167 22.2215L22.8432 29.0767C22.4233 29.3191 22.2378 29.8279 22.4032 30.2837C22.7355 31.2 23.1167 32.0352 23.5498 32.7853C23.9478 33.4747 24.3617 34.1549 24.7914 34.8259C25.056 35.2391 25.5812 35.3993 26.0313 35.2042L27.5985 34.5247ZM27.324 30.2733C27.3241 30.2734 27.324 30.2748 27.3239 30.2775C27.3239 30.2747 27.324 30.2733 27.324 30.2733Z" stroke="white" stroke-width="2" stroke-linejoin="round"/>
</svg>
